<svg data-v-423bf9ae="" xmlns="http://www.w3.org/2000/svg" viewBox="0 0 407 90" class="iconLeft"><!----><!----><!----><g data-v-423bf9ae="" id="a684dd52-261f-4c31-ab01-af02b0c08bf1" fill="white" transform="matrix(5.830903811703725,0,0,5.830903811703725,109.18367013815549,2.3469397142517323)"><path d="M2.25 12.29L0.14 4.93L1.40 4.93L2.39 8.67L2.90 10.53L2.95 10.53L3.46 8.62L4.45 4.93L5.61 4.93L3.50 12.29L2.25 12.29ZM6.44 3.54L6.44 2.17L7.59 2.17L7.59 3.54L6.44 3.54ZM6.44 12.29L6.44 4.93L7.59 4.93L7.59 12.29L6.44 12.29ZM9.13 12.29L9.13 4.93L10.00 4.93L10.15 5.89L10.23 5.89Q10.39 5.40 10.70 5.08Q11.00 4.76 11.48 4.76L11.48 4.76Q11.68 4.76 11.83 4.81Q11.98 4.86 12.03 4.87L12.03 4.87L12.03 6.06L11.65 6.06Q11.05 6.06 10.66 6.47Q10.28 6.89 10.28 7.80L10.28 7.80L10.28 12.29L9.13 12.29ZM14.25 12.43Q13.55 12.43 13.24 11.95Q12.94 11.47 12.94 10.74L12.94 10.74L12.94 5.95L12.31 5.95L12.31 4.93L12.94 4.93L13.19 2.88L14.08 2.88L14.08 4.93L15.08 4.93L15.08 5.95L14.08 5.95L14.08 10.77Q14.08 11.44 14.74 11.44L14.74 11.44L15.08 11.44L15.08 12.24Q14.92 12.32 14.69 12.38Q14.46 12.43 14.25 12.43L14.25 12.43ZM18.49 12.46Q17.19 12.46 16.53 11.52Q15.86 10.57 15.86 8.61L15.86 8.61Q15.86 6.65 16.53 5.71Q17.19 4.76 18.49 4.76L18.49 4.76Q19.80 4.76 20.46 5.71Q21.13 6.65 21.13 8.61L21.13 8.61Q21.13 10.57 20.46 11.52Q19.80 12.46 18.49 12.46L18.49 12.46ZM18.49 11.44Q19.92 11.44 19.92 8.88L19.92 8.88L19.92 8.34Q19.92 5.78 18.49 5.78L18.49 5.78Q17.07 5.78 17.07 8.34L17.07 8.34L17.07 8.88Q17.07 11.44 18.49 11.44L18.49 11.44ZM22.53 12.29L22.53 4.93L23.39 4.93L23.55 5.78L23.63 5.78Q24.18 4.76 25.31 4.76L25.31 4.76Q26.50 4.76 26.88 5.82L26.88 5.82Q27.16 5.31 27.64 5.03Q28.13 4.76 28.67 4.76L28.67 4.76Q30.41 4.76 30.41 6.99L30.41 6.99L30.41 12.29L29.26 12.29L29.26 7.07Q29.26 6.36 29.01 6.07Q28.76 5.78 28.31 5.78L28.31 5.78Q27.78 5.78 27.41 6.33Q27.05 6.87 27.05 7.80L27.05 7.80L27.05 12.29L25.90 12.29L25.90 7.07Q25.90 6.36 25.65 6.07Q25.40 5.78 24.95 5.78L24.95 5.78Q24.42 5.78 24.05 6.33Q23.67 6.87 23.67 7.80L23.67 7.80L23.67 12.29L22.53 12.29ZM34.62 12.46Q33.22 12.46 32.53 11.54Q31.84 10.63 31.84 8.61L31.84 8.61Q31.84 6.64 32.52 5.70Q33.21 4.76 34.61 4.76L34.61 4.76Q35.84 4.76 36.43 5.58Q37.03 6.40 37.03 8.22L37.03 8.22L37.03 8.95L33.04 8.95Q33.05 10.23 33.44 10.84Q33.82 11.44 34.65 11.44L34.65 11.44Q35.21 11.44 35.55 10.99Q35.90 10.54 35.90 9.79L35.90 9.79L37.03 9.79Q37.03 11.02 36.36 11.74Q35.70 12.46 34.62 12.46L34.62 12.46ZM33.05 7.92L35.83 7.92Q35.83 6.87 35.52 6.33Q35.21 5.78 34.61 5.78L34.61 5.78Q33.87 5.78 33.49 6.31Q33.12 6.83 33.05 7.92L33.05 7.92ZM39.77 12.43Q39.07 12.43 38.77 11.95Q38.46 11.47 38.46 10.74L38.46 10.74L38.46 5.95L37.83 5.95L37.83 4.93L38.46 4.93L38.71 2.88L39.61 2.88L39.61 4.93L40.60 4.93L40.60 5.95L39.61 5.95L39.61 10.77Q39.61 11.44 40.26 11.44L40.26 11.44L40.60 11.44L40.60 12.24Q40.45 12.32 40.21 12.38Q39.98 12.43 39.77 12.43L39.77 12.43ZM44.20 12.46Q42.80 12.46 42.10 11.54Q41.41 10.63 41.41 8.61L41.41 8.61Q41.41 6.64 42.10 5.70Q42.78 4.76 44.18 4.76L44.18 4.76Q45.42 4.76 46.01 5.58Q46.61 6.40 46.61 8.22L46.61 8.22L46.61 8.95L42.62 8.95Q42.63 10.23 43.02 10.84Q43.40 11.44 44.23 11.44L44.23 11.44Q44.79 11.44 45.13 10.99Q45.47 10.54 45.47 9.79L45.47 9.79L46.61 9.79Q46.61 11.02 45.94 11.74Q45.28 12.46 44.20 12.46L44.20 12.46ZM42.63 7.92L45.40 7.92Q45.40 6.87 45.09 6.33Q44.79 5.78 44.18 5.78L44.18 5.78Q43.44 5.78 43.07 6.31Q42.70 6.83 42.63 7.92L42.63 7.92ZM48.05 12.29L48.05 4.93L48.92 4.93L49.07 5.89L49.15 5.89Q49.31 5.40 49.62 5.08Q49.92 4.76 50.40 4.76L50.40 4.76Q50.60 4.76 50.75 4.81Q50.90 4.86 50.95 4.87L50.95 4.87L50.95 6.06L50.57 6.06Q49.97 6.06 49.58 6.47Q49.20 6.89 49.20 7.80L49.20 7.80L49.20 12.29L48.05 12.29Z"></path></g><!----><g data-v-423bf9ae="" id="2d9693aa-8250-4ad0-a4e8-f41420a6da07" transform="matrix(1.8,0,0,1.8,-12.600000000000001,-12.600000000000001)" stroke="none" fill="white"><path d="M7 45v11a1 1 0 001 1h48a1 1 0 001-1V45H7zm9 6h-2a1 1 0 110-2h2a1 1 0 110 2zm8 0h-2a1 1 0 110-2h2a1 1 0 110 2zm20 1a2 2 0 11.001-4.001A2 2 0 0144 52zm6 0a2 2 0 11.001-4.001A2 2 0 0150 52zM57 43V8a1 1 0 00-1-1H8a1 1 0 00-1 1v35h50zM14 27h4c.265 0 .52.105.707.293l7.019 7.018 9.379-18.759a1 1 0 011.727-.108L44.535 27H50a1 1 0 110 2h-6c-.334 0-.646-.167-.832-.445l-7.044-10.567-9.229 18.459a1.003 1.003 0 01-1.602.26L17.586 29H14a1 1 0 010-2z"></path></g><!----></svg>