<svg xmlns="http://www.w3.org/2000/svg" xmlns:xlink="http://www.w3.org/1999/xlink" version="1.1" width="232.999pt" height="351.0469pt" viewBox="0 0 232.999 351.0469">
<defs>
<clipPath id="clip_0">
<path transform="matrix(1,0,0,-1,-273.285,377.48)" d="M273.285 26.4331H506.284V377.48H273.285Z" fill-rule="evenodd"/>
</clipPath>
<clipPath id="clip_1">
<path transform="matrix(.001968504,0,0,.001968504,-273.285,-27.519989)" d="M0 0H365760V205740H0V0Z"/>
</clipPath>
</defs>
<g>
<g clip-path="url(#clip_0)">
<g clip-path="url(#clip_1)">
<path transform="matrix(.001968504,0,0,.001968504,-273.285,-27.519989)" d="M0 0H365760V205740H0Z" fill="#ffffff" fill-rule="evenodd"/>
<path transform="matrix(.001968504,0,0,.001968504,-273.285,-27.519989)" d="M138829 29179.745V29179.745C138829 28501.68 139378.69 27952 140056.75 27952H213765.25C214090.88 27952 214403.16 28081.352 214633.4 28311.598 214863.66 28541.844 214993 28854.127 214993 29179.745V60132.259C214993 60810.32 214443.32 61360 213765.25 61360H140056.75C139378.69 61360 138829 60810.32 138829 60132.259Z" fill="#d9c4b1" fill-rule="evenodd"/>
<text fill="#434343" xml:space="preserve" transform="matrix(.75 0 0 .75 .7082825 28.211495)" font-size="10.666667" font-family="TimesNewRomanPS" font-weight="bold"><tspan y="19.24" x="71.32767 77.25833 81.983669 85.53567 91.46633 97.396999 100.06366 106.57033 112.50099 117.83433 121.98366">Setup Phase</tspan></text>
<path transform="matrix(.001968504,0,0,.001968504,-273.285,-27.519989)" d="M138840 79963.699V79963.699C138840 79423.738 139277.74 78986 139817.7 78986H214026.3C214285.61 78986 214534.28 79089.01 214717.64 79272.36 214901 79455.72 215004 79704.4 215004 79963.699V104612.308C215004 105152.27 214566.27 105590 214026.3 105590H139817.7C139277.74 105590 138840 105152.27 138840 104612.308Z" fill="#d9c4b1" fill-rule="evenodd"/>
<text fill="#434343" xml:space="preserve" transform="matrix(.75 0 0 .75 .5857849 128.52796)" font-size="10.666667" font-family="TimesNewRomanPS" font-weight="bold"><tspan y="19.24" x="58.49356 62.642896 68.57356 72.7229 76.2749 81.60824 84.562908 87.51757 92.85091 96.40291 99.357578 104.69091 110.621578 113.28824 119.79491 125.72557 131.0589 135.20824">Installation Phase</tspan></text>
<path transform="matrix(.001968504,0,0,.001968504,-273.285,-27.519989)" d="M188637.38 15268.036V15268.036C188637.38 14556.673 189214.05 13980 189925.4 13980H255869.33C256210.94 13980 256538.57 14115.703 256780.11 14357.257 257021.67 14598.811 257157.38 14926.428 257157.38 15268.036V22675.965C257157.38 23387.327 256580.69 23964 255869.33 23964H189925.4C189214.05 23964 188637.38 23387.327 188637.38 22675.965Z" fill="#009384" fill-rule="evenodd"/>
<text fill="#f3f3f3" xml:space="preserve" transform="matrix(.75 0 0 .75 98.791049 .742321)" font-size="10.666667" font-family="TimesNewRomanPS" font-weight="bold"><tspan y="15.852198" x="27.590394 33.52106 39.45173 44.78506 50.71573 53.670396 59.601064 62.26773 66.41707 71.1424 74.694408 80.62507 86.55573 88.63573 96.33706 101.06239 106.99306 111.52639 116.251728 118.91839 124.84905 130.18239 136.11305 140.83838 144.98772">Should setup Azure nodes?</tspan></text>
<path transform="matrix(.001968504,0,0,.001968504,-273.285,-27.519989)" d="M222897.38 23964C222897.38 24960.997 211401.38 25459.993 199905.38 25957.993 188409.38 26455.993 176913.38 26952.997 176913.38 27948" fill-opacity="0" fill-rule="evenodd"/>
<path transform="matrix(.001968504,0,0,.001968504,-273.285,-27.519989)" stroke-width="381" stroke-linecap="butt" stroke-linejoin="round" fill="none" stroke="#666666" d="M222897.38 23964C222897.38 24960.997 211401.38 25459.993 199905.38 25957.993 188409.38 26455.993 176913.38 26952.997 176913.38 27948"/>
<path transform="matrix(.001968504,0,0,.001968504,-273.285,-27.519989)" d="M188654.52 66785.04V66785.04C188654.52 66073.67 189231.19 65497 189942.55 65497H255886.47C256228.08 65497 256555.7 65632.7 256797.25 65874.26 257038.82 66115.81 257174.52 66443.43 257174.52 66785.04V74192.96C257174.52 74904.33 256597.85 75481 255886.47 75481H189942.55C189231.19 75481 188654.52 74904.33 188654.52 74192.96Z" fill="#009384" fill-rule="evenodd"/>
<text fill="#f3f3f3" xml:space="preserve" transform="matrix(.75 0 0 .75 98.82477 102.15373)" font-size="10.666667" font-family="TimesNewRomanPS" font-weight="bold"><tspan y="15.852198" x="28.188477 34.119146 40.049814 45.383146 51.313814 54.26848 60.199148 62.865816 65.82048 71.751148 75.90048 79.452487 84.78582 87.740489 90.69515 93.169818 100.87115 110.92982 113.59648 117.74582 123.079158 127.228488 130.78049 135.50582 144.39115">Should install VM system?</tspan></text>
<path transform="matrix(.001968504,0,0,.001968504,-273.285,-27.519989)" d="M222914.52 75481C222914.52 76357.24 211415.52 76795.49 199916.52 77233.49 188417.52 77671.49 176918.52 78109.24 176918.52 78985" fill-opacity="0" fill-rule="evenodd"/>
<path transform="matrix(.001968504,0,0,.001968504,-273.285,-27.519989)" stroke-width="381" stroke-linecap="butt" stroke-linejoin="round" fill="none" stroke="#666666" d="M222914.52 75481C222914.52 76357.24 211415.52 76795.49 199916.52 77233.49 188417.52 77671.49 176918.52 78109.24 176918.52 78985"/>
<path transform="matrix(.001968504,0,0,.001968504,-273.285,-27.519989)" d="M176911 61360C176911 62394.255 188413 62911.009 199915 63428.509 211417 63946.009 222919 64464.255 222919 65500" fill-opacity="0" fill-rule="evenodd"/>
<path transform="matrix(.001968504,0,0,.001968504,-273.285,-27.519989)" stroke-width="381" stroke-linecap="butt" stroke-linejoin="round" fill="none" stroke="#666666" d="M176911 61360C176911 62394.255 188413 62911.009 199915 63428.509 211417 63946.009 222919 64464.255 222919 65500"/>
<path transform="matrix(.001968504,0,0,.001968504,-273.285,-27.519989)" d="M222897.38 23964C222897.38 34347.208 222903.38 39538.916 222909.38 44730.416 222915.38 49921.916 222921.38 55113.208 222921.38 65496" fill-opacity="0" fill-rule="evenodd"/>
<path transform="matrix(.001968504,0,0,.001968504,-273.285,-27.519989)" stroke-width="381" stroke-linecap="butt" stroke-linejoin="round" fill="none" stroke="#666666" d="M222897.38 23964C222897.38 34347.208 222903.38 39538.916 222909.38 44730.416 222915.38 49921.916 222921.38 55113.208 222921.38 65496"/>
<path transform="matrix(.001968504,0,0,.001968504,-273.285,-27.519989)" d="M188655.94 111058.54V111058.54C188655.94 110347.17 189232.61 109770.5 189943.97 109770.5H255887.9C256229.52 109770.5 256557.13 109906.2 256798.69 110147.76 257040.24 110389.31 257175.94 110716.93 257175.94 111058.54V118466.46C257175.94 119177.83 256599.27 119754.5 255887.9 119754.5H189943.97C189232.61 119754.5 188655.94 119177.83 188655.94 118466.46Z" fill="#009384" fill-rule="evenodd"/>
<text fill="#f3f3f3" xml:space="preserve" transform="matrix(.75 0 0 .75 98.827579 189.3063)" font-size="10.666667" font-family="TimesNewRomanPS" font-weight="bold"><tspan y="15.852198" x="31.190659 37.121328 43.051996 48.385328 54.315996 57.27066 63.20133 65.868 70.59333 76.523998 82.45466 85.12132 91.05199 95.77732 101.707988 106.43332 112.36398 121.24931 126.58265 131.30799 137.23865 141.38799">Should run benchmarks?</tspan></text>
<path transform="matrix(.001968504,0,0,.001968504,-273.285,-27.519989)" d="M222915.94 109770.5C222915.94 108725.378 211416.94 108202.24 199917.94 107680.24 188418.94 107158.24 176919.94 106637.378 176919.94 105594.5" fill-opacity="0" fill-rule="evenodd"/>
<path transform="matrix(.001968504,0,0,.001968504,-273.285,-27.519989)" stroke-width="381" stroke-linecap="butt" stroke-linejoin="round" fill="none" stroke="#666666" d="M222915.94 109770.5C222915.94 108725.378 211416.94 108202.24 199917.94 107680.24 188418.94 107158.24 176919.94 106637.378 176919.94 105594.5"/>
<path transform="matrix(.001968504,0,0,.001968504,-273.285,-27.519989)" d="M222915.94 109770.5C222915.94 101198.128 222921.94 96911.26 222927.94 92625.76 222933.94 88340.26 222939.94 84056.128 222939.94 75486.5" fill-opacity="0" fill-rule="evenodd"/>
<path transform="matrix(.001968504,0,0,.001968504,-273.285,-27.519989)" stroke-width="381" stroke-linecap="butt" stroke-linejoin="round" fill="none" stroke="#666666" d="M222915.94 109770.5C222915.94 101198.128 222921.94 96911.26 222927.94 92625.76 222933.94 88340.26 222939.94 84056.128 222939.94 75486.5"/>
<path transform="matrix(.001968504,0,0,.001968504,-273.285,-27.519989)" d="M138846 124930.97V124930.97C138846 124276.53 139376.53 123746 140030.97 123746H213825.03C214139.32 123746 214440.7 123870.84 214662.94 124093.07 214885.16 124315.3 215010 124616.699 215010 124930.97V154805.03C215010 155459.47 214479.47 155990 213825.03 155990H140030.97C139376.53 155990 138846 155459.47 138846 154805.03Z" fill="#d9c4b1" fill-rule="evenodd"/>
<text fill="#434343" xml:space="preserve" transform="matrix(.75 0 0 .75 .71707156 216.75769)" font-size="10.666667" font-family="TimesNewRomanPS" font-weight="bold"><tspan y="19.24" x="57.748857 64.85286 69.57819 75.50886 80.23419 86.164859 95.050189 100.38352 105.10886 111.03952 113.706188 120.21285 126.14352 131.47686 135.62619">Benchmark Phase</tspan></text>
<path transform="matrix(.001968504,0,0,.001968504,-273.285,-27.519989)" d="M176928 123746C176928 122748.12 188424 122249.738 199920 121750.238 211416 121250.738 222912 120750.12 222912 119750" fill-opacity="0" fill-rule="evenodd"/>
<path transform="matrix(.001968504,0,0,.001968504,-273.285,-27.519989)" stroke-width="381" stroke-linecap="butt" stroke-linejoin="round" fill="none" stroke="#666666" d="M176928 123746C176928 122748.12 188424 122249.738 199920 121750.238 211416 121250.738 222912 120750.12 222912 119750"/>
<path transform="matrix(.001968504,0,0,.001968504,-273.285,-27.519989)" d="M188672.36 160895.03V160895.03C188672.36 160183.67 189249.05 159607 189960.4 159607H255904.33C256245.94 159607 256573.57 159742.7 256815.11 159984.25 257056.66 160225.82 257192.36 160553.42 257192.36 160895.03V168302.97C257192.36 169014.33 256615.69 169591 255904.33 169591H189960.4C189249.05 169591 188672.36 169014.33 188672.36 168302.97Z" fill="#009384" fill-rule="evenodd"/>
<text fill="#f3f3f3" xml:space="preserve" transform="matrix(.75 0 0 .75 98.859928 287.40965)" font-size="10.666667" font-family="TimesNewRomanPS" font-weight="bold"><tspan y="15.852198" x="25.383927 31.314595 37.245264 42.578596 48.509263 51.46393 57.394598 60.061265 65.99193 70.71726 73.67193 78.39726 81.949268 86.6746 89.34126 94.0666 99.99726 105.3306 108.28526 112.818599 118.15193 124.082599 132.96793 137.69326 143.62392 147.17592">Should delete environment?</tspan></text>
<path transform="matrix(.001968504,0,0,.001968504,-273.285,-27.519989)" d="M222932.36 159607C222932.36 149643.8 222938.36 144662.1 222944.36 139680.6 222950.36 134699.1 222956.36 129717.8 222956.36 119755" fill-opacity="0" fill-rule="evenodd"/>
<path transform="matrix(.001968504,0,0,.001968504,-273.285,-27.519989)" stroke-width="381" stroke-linecap="butt" stroke-linejoin="round" fill="none" stroke="#666666" d="M222932.36 159607C222932.36 149643.8 222938.36 144662.1 222944.36 139680.6 222950.36 134699.1 222956.36 129717.8 222956.36 119755"/>
<path transform="matrix(.001968504,0,0,.001968504,-273.285,-27.519989)" d="M222932.36 159607C222932.36 158702.75 211430.36 158250 199928.36 157798.5 188426.36 157347 176924.36 156896.75 176924.36 155995" fill-opacity="0" fill-rule="evenodd"/>
<path transform="matrix(.001968504,0,0,.001968504,-273.285,-27.519989)" stroke-width="381" stroke-linecap="butt" stroke-linejoin="round" fill="none" stroke="#666666" d="M222932.36 159607C222932.36 158702.75 211430.36 158250 199928.36 157798.5 188426.36 157347 176924.36 156896.75 176924.36 155995"/>
<path transform="matrix(.001968504,0,0,.001968504,-273.285,-27.519989)" d="M138840 173910.08V173910.08C138840 173522.33 139154.33 173208 139542.08 173208H214301.92C214488.13 173208 214666.7 173281.97 214798.38 173413.63 214930.03 173545.3 215004 173723.88 215004 173910.08V191609.92C215004 191997.67 214689.67 192312 214301.92 192312H139542.08C139154.33 192312 138840 191997.67 138840 191609.92Z" fill="#d9c4b1" fill-rule="evenodd"/>
<text fill="#434343" xml:space="preserve" transform="matrix(.75 0 0 .75 .42684938 313.84544)" font-size="10.666667" font-family="TimesNewRomanPS" font-weight="bold"><tspan y="19.24" x="61.864297 67.99763 72.72296 78.0563 82.78163 88.712299 94.04563 101.74696 107.67763 110.34429 116.85096 122.781627 128.11496 132.2643">Teardown Phase</tspan></text>
<path transform="matrix(.001968504,0,0,.001968504,-273.285,-27.519989)" d="M144240 147570.46V147570.46C144240 147365.67 144406.02 147199.66 144610.8 147199.66H209245.2C209343.55 147199.66 209437.86 147238.74 209507.39 147308.27 209576.94 147377.8 209616 147472.11 209616 147570.46V152600.88C209616 152805.66 209449.99 152971.66 209245.2 152971.66H144610.8C144406.02 152971.66 144240 152805.66 144240 152600.88Z" fill="#002f4a" fill-rule="evenodd"/>
<text fill="#f3f3f3" xml:space="preserve" transform="matrix(.75 0 0 .75 10.865784 262.4569)" font-size="10.666667" font-family="TimesNewRomanPSMT"><tspan y="11.029759" x="59.910257 65.84092 70.56625 75.89959 80.62492 83.29159 86.84359 91.568927 95.71826 101.0516 104.00626 106.96093">Save results</tspan></text>
<path transform="matrix(.001968504,0,0,.001968504,-273.285,-27.519989)" d="M176922 173208C176922 172303.75 188424 171851 199926 171399.5 211428 170948 222930 170497.75 222930 169596" fill-opacity="0" fill-rule="evenodd"/>
<path transform="matrix(.001968504,0,0,.001968504,-273.285,-27.519989)" stroke-width="381" stroke-linecap="butt" stroke-linejoin="round" fill="none" stroke="#666666" d="M176922 173208C176922 172303.75 188424 171851 199926 171399.5 211428 170948 222930 170497.75 222930 169596"/>
<path transform="matrix(.001968504,0,0,.001968504,-273.285,-27.519989)" d="M144240 183389.6V183389.6C144240 183152.88 144431.89 182960.99 144668.61 182960.99H209187.39C209301.07 182960.99 209410.08 183006.14 209490.47 183086.52 209570.85 183166.89 209616 183275.9 209616 183389.6V189204.38C209616 189441.08 209424.11 189632.99 209187.39 189632.99H144668.61C144431.89 189632.99 144240 189441.08 144240 189204.38Z" fill="#002f4a" fill-rule="evenodd"/>
<text fill="#f3f3f3" xml:space="preserve" transform="matrix(.75 0 0 .75 10.899139 332.88655)" font-size="10.666667" font-family="TimesNewRomanPSMT"><tspan y="12.166416" x="19.465493 25.39616 30.729495 36.062829 39.017496 44.350828 49.68416 57.38549 62.718824 64.79882 72.50015 77.22549 82.55882 86.110828 90.83616 93.50282 98.22816 103.56149 108.89483 111.849498 115.4015 120.73483 126.06817 134.35617 139.0815 144.41483 147.36949">Shutdown Azure environments</tspan></text>
<path transform="matrix(.001968504,0,0,.001968504,-273.285,-27.519989)" d="M144240 140835.63V140835.63C144240 140630.83 144406.02 140464.83 144610.8 140464.83H209245.2C209343.55 140464.83 209437.86 140503.89 209507.39 140573.42 209576.94 140642.97 209616 140737.28 209616 140835.63V145866.03C209616 146070.82 209449.99 146236.83 209245.2 146236.83H144610.8C144406.02 146236.83 144240 146070.82 144240 145866.03Z" fill="#002f4a" fill-rule="evenodd"/>
<text fill="#f3f3f3" xml:space="preserve" transform="matrix(.75 0 0 .75 10.865784 249.19937)" font-size="10.666667" font-family="TimesNewRomanPSMT"><tspan y="11.029759" x="56.80652 63.91052 69.24385 74.57719 77.24385 81.969188 86.69452 91.41985 96.75319 99.41985 102.37452 107.09985 111.24919">Run each test</tspan></text>
<path transform="matrix(.001968504,0,0,.001968504,-273.285,-27.519989)" d="M144234 134099.78V134099.78C144234 133895 144400.02 133728.99 144604.8 133728.99H209239.2C209337.55 133728.99 209431.86 133768.05 209501.39 133837.6 209570.94 133907.13 209610 134001.44 209610 134099.78V139130.19C209610 139334.99 209443.99 139500.99 209239.2 139500.99H144604.8C144400.02 139500.99 144234 139334.99 144234 139130.19Z" fill="#002f4a" fill-rule="evenodd"/>
<text fill="#f3f3f3" xml:space="preserve" transform="matrix(.75 0 0 .75 10.853973 235.93982)" font-size="10.666667" font-family="TimesNewRomanPSMT"><tspan y="11.029759" x="36.693368 42.624036 46.176034 50.901369 56.2347 60.960035 64.51203 69.237369 71.90403 75.45603 80.78937 84.34137 87.00803 92.34137 97.0667 102.40004 107.125377 112.45871 120.74671 125.472049 129.02405">Prepare for benchmark</tspan></text>
<path transform="matrix(.001968504,0,0,.001968504,-273.285,-27.519989)" d="M144227 89241.59V89241.59C144227 89004.88 144418.89 88812.988 144655.61 88812.988H209174.39C209288.07 88812.988 209397.08 88858.14 209477.47 88938.52 209557.85 89018.91 209603 89127.92 209603 89241.59V95056.378C209603 95293.09 209411.11 95484.988 209174.39 95484.988H144655.61C144418.89 95484.988 144227 95293.09 144227 95056.378Z" fill="#002f4a" fill-rule="evenodd"/>
<text fill="#f3f3f3" xml:space="preserve" transform="matrix(.75 0 0 .75 10.873535 147.55583)" font-size="10.666667" font-family="TimesNewRomanPSMT"><tspan y="12.166416" x="25.98487 29.536871 34.870206 39.01954 41.974206 46.69954 49.654207 52.60887 55.27554 59.424875 64.75821 68.90755 71.86221 76.58755 84.87555 87.54221 92.87555 97.60088 102.93422 107.65955 112.99289 118.326229 123.05156 128.38489 133.11022 136.06488 140.7902">Install system dependencies</tspan></text>
<path transform="matrix(.001968504,0,0,.001968504,-273.285,-27.519989)" d="M144240.47 96705.7V96705.7C144240.47 96468.988 144432.38 96277.09 144669.08 96277.09H209187.86C209301.53 96277.09 209410.57 96322.25 209490.94 96402.628 209571.32 96483.01 209616.47 96592.02 209616.47 96705.7V102520.488C209616.47 102757.199 209424.58 102949.09 209187.86 102949.09H144669.08C144432.38 102949.09 144240.47 102757.199 144240.47 102520.488Z" fill="#002f4a" fill-rule="evenodd"/>
<text fill="#f3f3f3" xml:space="preserve" transform="matrix(.75 0 0 .75 10.900055 162.24897)" font-size="10.666667" font-family="TimesNewRomanPSMT"><tspan y="12.166416" x="17.641556 21.193556 26.52689 30.676224 33.63089 38.356225 41.31089 44.265558 46.740224 54.44156 63.924226 66.59089 74.87889 79.604228 84.93756 89.662899 94.99623 99.721569 108.00957 112.7349 118.06824 121.0229 123.68957 127.8389 133.17223 137.32157 140.27623 145.00156">Install VM management system</tspan></text>
<path transform="matrix(.001968504,0,0,.001968504,-273.285,-27.519989)" d="M144214 38146.79V38146.79C144214 37942.005 144380.02 37775.994 144584.8 37775.994H209219.2C209317.55 37775.994 209411.86 37815.06 209481.39 37884.599 209550.94 37954.134 209590 38048.447 209590 38146.79V43177.2C209590 43381.986 209423.99 43547.994 209219.2 43547.994H144584.8C144380.02 43547.994 144214 43381.986 144214 43177.2Z" fill="#002f4a" fill-rule="evenodd"/>
<text fill="#f3f3f3" xml:space="preserve" transform="matrix(.75 0 0 .75 10.814606 47.055986)" font-size="10.666667" font-family="TimesNewRomanPSMT"><tspan y="11.029759" x="43.790887 50.894887 54.446886 59.17222 63.897554 66.85222 71.57755 73.65755 81.35888 86.08421 91.41755 94.96955 99.694889 102.36155 107.694889 113.02822 118.36156 123.08689">Create Azure nodes</tspan></text>
<path transform="matrix(.001968504,0,0,.001968504,-273.285,-27.519989)" d="M144214 45467.11V45467.11C144214 45262.326 144380.02 45096.318 144584.8 45096.318H209219.2C209317.55 45096.318 209411.86 45135.384 209481.39 45204.919 209550.94 45274.458 209590 45368.77 209590 45467.11V50497.525C209590 50702.306 209423.99 50868.318 209219.2 50868.318H144584.8C144380.02 50868.318 144214 50702.306 144214 50497.525Z" fill="#002f4a" fill-rule="evenodd"/>
<text fill="#f3f3f3" xml:space="preserve" transform="matrix(.75 0 0 .75 10.814606 61.466073)" font-size="10.666667" font-family="TimesNewRomanPSMT"><tspan y="11.029759" x="39.64361 45.574277 50.29961 53.254278 58.58761 63.92094 66.58761 71.920948 76.64628 79.600948 87.30228 92.63561 96.187618 101.52095 104.187618 108.91295 113.63828 118.36362 123.08895 127.23828">Setup network access</tspan></text>
<path transform="matrix(.001968504,0,0,.001968504,-273.285,-27.519989)" d="M144214 52787.435V52787.435C144214 52582.65 144380.02 52416.638 144584.8 52416.638H209219.2C209317.55 52416.638 209411.86 52455.705 209481.39 52525.244 209550.94 52594.779 209590 52689.09 209590 52787.435V57817.845C209590 58022.63 209423.99 58188.638 209219.2 58188.638H144584.8C144380.02 58188.638 144214 58022.63 144214 57817.845Z" fill="#002f4a" fill-rule="evenodd"/>
<text fill="#f3f3f3" xml:space="preserve" transform="matrix(.75 0 0 .75 10.814606 75.87616)" font-size="10.666667" font-family="TimesNewRomanPSMT"><tspan y="11.029759" x="31.357438 34.90944 40.24277 44.392107 47.34677 52.072107 55.02677 57.981439 60.648107 65.373439 70.70677 78.994777 87.282779 92.61611 97.94945 100.61611 105.94945 110.67478 115.400119 120.73345 125.458789 130.79212 135.51744">Install common packages</tspan></text>
</g>
</g>
</g>
</svg>
