<svg xmlns="http://www.w3.org/2000/svg" xmlns:xlink="http://www.w3.org/1999/xlink" version="1.1" width="369.643pt" height="339.0607pt" viewBox="0 0 369.643 339.0607">
<defs>
<clipPath id="clip_0">
<path transform="matrix(1,0,0,-1,-175.178,372.031)" d="M175.178 32.9703H544.821V372.031H175.178Z" fill-rule="evenodd"/>
</clipPath>
<clipPath id="clip_1">
<path transform="matrix(.001968504,0,0,.001968504,-175.178,-32.968996)" d="M0 0H365760V205740H0V0Z"/>
</clipPath>
</defs>
<g>
<g clip-path="url(#clip_0)">
<g clip-path="url(#clip_1)">
<path transform="matrix(.001968504,0,0,.001968504,-175.178,-32.968996)" d="M0 0H365760V205740H0Z" fill="#ffffff" fill-rule="evenodd"/>
<path transform="matrix(.001968504,0,0,.001968504,-175.178,-32.968996)" d="M125510.74 119336.558V119336.558C125510.74 117868.878 126700.53 116679.09 128168.21 116679.09H241701.28C242406.08 116679.09 243082.02 116959.07 243580.39 117457.449 244078.77 117955.81 244358.74 118631.75 244358.74 119336.558V186333.63C244358.74 187801.3 243168.96 188991.1 241701.28 188991.1H128168.21C126700.53 188991.1 125510.74 187801.3 125510.74 186333.63Z" fill="#d9c4b1" fill-rule="evenodd"/>
<text fill="#434343" xml:space="preserve" transform="matrix(.75 0 0 .75 73.42256 198.24643)" font-size="14.666667" font-family="TimesNewRomanPSMT"><tspan y="172.78948" x="53.801088 61.955755 68.45309 73.33709 78.22109 85.55443 90.43843 101.834438 108.33177 115.66511 122.162448 128.65978 131.51978 142.10912 149.44245 155.93978 160.00244 167.33577 173.0411 177.10378 182.80912 186.47579 194.63045 199.51445 206.01178 217.40778 223.9051 234.49445 241.82778 246.71178">Performance Analysis Framework</tspan></text>
<path transform="matrix(.001968504,0,0,.001968504,-175.178,-32.968996)" d="M90059.42 39232.46V39232.46C90059.42 38175.666 90916.128 37318.96 91972.92 37318.96H181637.92C182145.4 37318.96 182632.13 37520.564 182990.97 37879.41 183349.83 38238.26 183551.42 38724.97 183551.42 39232.46V87473.46C183551.42 88530.26 182694.72 89386.96 181637.92 89386.96H91972.92C90916.128 89386.96 90059.42 88530.26 90059.42 87473.46Z" fill="#d9c4b1" fill-rule="evenodd"/>
<text fill="#434343" xml:space="preserve" transform="matrix(.75 0 0 .75 3.2075654 41.596765)" font-size="14.666667" font-family="TimesNewRomanPSMT"><tspan y="23.08" x="53.66578 64.25511 70.75244 78.08578 82.96978 89.46712 93.13378 102.90178 109.39911 115.10445 122.43778 129.77112 134.65512 141.15245 147.64978 151.31645 161.90579 166.7898 174.12313 181.45645">Azure Resource Group</tspan></text>
<text fill="#434343" xml:space="preserve" transform="matrix(.75 0 0 .75 3.2075654 41.596765)" font-size="14.666667" font-family="TimesNewRomanPS" font-weight="bold"><tspan y="41.08" x="81.722339 93.11834 101.27301 107.77034 115.92501 126.51434 133.01168 141.16634 149.321 153.38367">OpenNebula</tspan></text>
<path transform="matrix(.001968504,0,0,.001968504,-175.178,-32.968996)" d="M96324.73 62393.298V62393.298C96324.73 61619.72 96951.839 60992.61 97725.417 60992.61H116728.04C117099.52 60992.61 117455.8 61140.185 117718.48 61402.865 117981.16 61665.544 118128.73 62021.814 118128.73 62393.298V82619.92C118128.73 83393.5 117501.62 84020.61 116728.04 84020.61H97725.417C96951.839 84020.61 96324.73 83393.5 96324.73 82619.92Z" fill="#009384" fill-rule="evenodd"/>
<text fill="#f3f3f3" xml:space="preserve" transform="matrix(.75 0 0 .75 15.245178 87.90277)" font-size="14.666667" font-family="TimesNewRomanPSMT"><tspan y="34.22371" x="15.729393 26.318728">VM</tspan></text>
<path transform="matrix(.001968504,0,0,.001968504,-175.178,-32.968996)" d="M123259.73 62393.298V62393.298C123259.73 61619.72 123886.839 60992.61 124660.417 60992.61H143663.03C144034.52 60992.61 144390.8 61140.185 144653.47 61402.865 144916.16 61665.544 145063.72 62021.814 145063.72 62393.298V82619.92C145063.72 83393.5 144436.61 84020.61 143663.03 84020.61H124660.417C123886.839 84020.61 123259.73 83393.5 123259.73 82619.92Z" fill="#b85741" fill-rule="evenodd"/>
<text fill="#f3f3f3" xml:space="preserve" transform="matrix(.75 0 0 .75 68.26683 87.90277)" font-size="14.666667" font-family="TimesNewRomanPSMT"><tspan y="34.22371" x="15.729393 26.318728">VM</tspan></text>
<path transform="matrix(.001968504,0,0,.001968504,-175.178,-32.968996)" d="M150194.72 62393.298V62393.298C150194.72 61619.72 150821.83 60992.61 151595.4 60992.61H170598.03C170969.52 60992.61 171325.8 61140.185 171588.47 61402.865 171851.16 61665.544 171998.72 62021.814 171998.72 62393.298V82619.92C171998.72 83393.5 171371.61 84020.61 170598.03 84020.61H151595.4C150821.83 84020.61 150194.72 83393.5 150194.72 82619.92Z" fill="#b85741" fill-rule="evenodd"/>
<text fill="#f3f3f3" xml:space="preserve" transform="matrix(.75 0 0 .75 121.2885 87.90277)" font-size="14.666667" font-family="TimesNewRomanPSMT"><tspan y="34.22371" x="15.729393 26.318728">VM</tspan></text>
<path transform="matrix(.001968504,0,0,.001968504,-175.178,-32.968996)" d="M186241.19 39232.46V39232.46C186241.19 38175.666 187097.89 37318.96 188154.69 37318.96H274855.7C275363.2 37318.96 275849.89 37520.564 276208.76 37879.41 276567.6 38238.26 276769.2 38724.97 276769.2 39232.46V87473.46C276769.2 88530.26 275912.5 89386.96 274855.7 89386.96H188154.69C187097.89 89386.96 186241.19 88530.26 186241.19 87473.46Z" fill="#d9c4b1" fill-rule="evenodd"/>
<text fill="#434343" xml:space="preserve" transform="matrix(.75 0 0 .75 192.54177 41.596765)" font-size="14.666667" font-family="TimesNewRomanPSMT"><tspan y="23.08" x="49.776018 60.36535 66.862689 74.19602 79.080028 85.57736 89.244029 99.012027 105.50935 111.21469 118.54803 125.88136 130.76537 137.2627 143.76003 147.4267 158.01604 162.90004 170.23337 177.5667">Azure Resource Group</tspan></text>
<text fill="#434343" xml:space="preserve" transform="matrix(.75 0 0 .75 192.54177 41.596765)" font-size="14.666667" font-family="TimesNewRomanPS" font-weight="bold"><tspan y="41.08" x="87.47955 98.87556 107.03023 115.1849 121.682239 131.72891 135.79158 142.28891">KubeVirt</tspan></text>
<path transform="matrix(.001968504,0,0,.001968504,-175.178,-32.968996)" d="M194422.74 62393.298V62393.298C194422.74 61619.72 195049.85 60992.61 195823.42 60992.61H214826.05C215197.53 60992.61 215553.8 61140.185 215816.49 61402.865 216079.16 61665.544 216226.74 62021.814 216226.74 62393.298V82619.92C216226.74 83393.5 215599.63 84020.61 214826.05 84020.61H195823.42C195049.85 84020.61 194422.74 83393.5 194422.74 82619.92Z" fill="#009384" fill-rule="evenodd"/>
<text fill="#f3f3f3" xml:space="preserve" transform="matrix(.75 0 0 .75 208.35149 87.90277)" font-size="14.666667" font-family="TimesNewRomanPSMT"><tspan y="34.22371" x="15.729393 26.318728">VM</tspan></text>
<path transform="matrix(.001968504,0,0,.001968504,-175.178,-32.968996)" d="M221357.74 62393.298V62393.298C221357.74 61619.72 221984.85 60992.61 222758.42 60992.61H241761.05C242132.53 60992.61 242488.8 61140.185 242751.49 61402.865 243014.16 61665.544 243161.74 62021.814 243161.74 62393.298V82619.92C243161.74 83393.5 242534.63 84020.61 241761.05 84020.61H222758.42C221984.85 84020.61 221357.74 83393.5 221357.74 82619.92Z" fill="#b85741" fill-rule="evenodd"/>
<text fill="#f3f3f3" xml:space="preserve" transform="matrix(.75 0 0 .75 261.37318 87.90277)" font-size="14.666667" font-family="TimesNewRomanPSMT"><tspan y="34.22371" x="15.729393 26.318728">VM</tspan></text>
<path transform="matrix(.001968504,0,0,.001968504,-175.178,-32.968996)" d="M248292.74 62393.298V62393.298C248292.74 61619.72 248919.85 60992.61 249693.42 60992.61H268696.04C269067.54 60992.61 269423.8 61140.185 269686.48 61402.865 269949.17 61665.544 270096.73 62021.814 270096.73 62393.298V82619.92C270096.73 83393.5 269469.64 84020.61 268696.04 84020.61H249693.42C248919.85 84020.61 248292.74 83393.5 248292.74 82619.92Z" fill="#b85741" fill-rule="evenodd"/>
<text fill="#f3f3f3" xml:space="preserve" transform="matrix(.75 0 0 .75 314.39485 87.90277)" font-size="14.666667" font-family="TimesNewRomanPSMT"><tspan y="34.22371" x="15.729393 26.318728">VM</tspan></text>
<path transform="matrix(.001968504,0,0,.001968504,-175.178,-32.968996)" d="M133129.25 123692.39V123692.39C133129.25 123230.88 133503.38 122856.76 133964.89 122856.76H182789.63C183011.25 122856.76 183223.8 122944.8 183380.5 123101.51 183537.22 123258.22 183625.25 123470.769 183625.25 123692.39V135029.13C183625.25 135490.63 183251.13 135864.77 182789.63 135864.77H133964.89C133503.38 135864.77 133129.25 135490.63 133129.25 135029.13Z" fill="#b85741" fill-rule="evenodd"/>
<text fill="#f3f3f3" xml:space="preserve" transform="matrix(.75 0 0 .75 87.36925 209.35681)" font-size="14.666667" font-family="TimesNewRomanPSMT"><tspan y="21.50848" x="19.226994 24.110995 35.506998 42.84033 46.902997 53.40033 64.79633 71.29367 78.62701 82.689678 89.18701 93.24968 97.31235 104.64568">Implementation</tspan></text>
<path transform="matrix(.001968504,0,0,.001968504,-175.178,-32.968996)" d="M186241.47 123693.41V123693.41C186241.47 123231.9 186615.6 122857.77 187077.1 122857.77H235901.83C236123.46 122857.77 236336 122945.81 236492.72 123102.52 236649.42 123259.24 236737.47 123471.79 236737.47 123693.41V135030.14C236737.47 135491.66 236363.35 135865.78 235901.83 135865.78H187077.1C186615.6 135865.78 186241.47 135491.66 186241.47 135030.14Z" fill="#b85741" fill-rule="evenodd"/>
<text fill="#f3f3f3" xml:space="preserve" transform="matrix(.75 0 0 .75 191.92086 209.3588)" font-size="14.666667" font-family="TimesNewRomanPSMT"><tspan y="21.50848" x="19.226994 24.110995 35.506998 42.84033 46.902997 53.40033 64.79633 71.29367 78.62701 82.689678 89.18701 93.24968 97.31235 104.64568">Implementation</tspan></text>
<path transform="matrix(.001968504,0,0,.001968504,-175.178,-32.968996)" d="M158377.25 122856.76C158377.25 113149.34 145588.25 108295.92 132799.25 103441.92 120010.26 98587.92 107221.26 93733.34 107221.26 84024.76" fill-opacity="0" fill-rule="evenodd"/>
<path transform="matrix(.001968504,0,0,.001968504,-175.178,-32.968996)" stroke-width="381" stroke-linecap="butt" stroke-linejoin="round" fill="none" stroke="#666666" d="M158377.25 122856.76C158377.25 113149.34 145588.25 108295.92 132799.25 103441.92 120010.26 98587.92 107221.26 93733.34 107221.26 84024.76"/>
<path transform="matrix(.001968504,0,0,.001968504,-175.178,-32.968996)" d="M205324.74 84020.61C205324.74 93728.417 206866.74 98582.22 208408.74 103436.22 209950.74 108290.22 211492.74 113144.417 211492.74 122852.61" fill-opacity="0" fill-rule="evenodd"/>
<path transform="matrix(.001968504,0,0,.001968504,-175.178,-32.968996)" stroke-width="381" stroke-linecap="butt" stroke-linejoin="round" fill="none" stroke="#666666" d="M205324.74 84020.61C205324.74 93728.417 206866.74 98582.22 208408.74 103436.22 209950.74 108290.22 211492.74 113144.417 211492.74 122852.61"/>
<path transform="matrix(.001968504,0,0,.001968504,-175.178,-32.968996)" d="M133129.42 93021.91H159829.42V107397.91H133129.42Z" fill-opacity="0" fill-rule="evenodd"/>
<text fill="#434343" xml:space="preserve" transform="matrix(.75 0 0 .75 86.8878 150.14499)" font-size="14.666667" font-family="TimesNewRomanPSMT"><tspan y="23.08" x="9 17.154667 25.309334">SSH</tspan></text>
<path transform="matrix(.001968504,0,0,.001968504,-175.178,-32.968996)" d="M138606.46 158859.57V158859.57C138606.46 158262.67 139090.35 157778.78 139687.24 157778.78H166421.69C166708.33 157778.78 166983.22 157892.66 167185.9 158095.35 167388.6 158298.03 167502.46 158572.92 167502.46 158859.57V173522.02C167502.46 174118.9 167018.58 174602.78 166421.69 174602.78H139687.24C139090.35 174602.78 138606.46 174118.9 138606.46 173522.02Z" fill="#002f4a" fill-rule="evenodd"/>
<text fill="#f3f3f3" xml:space="preserve" transform="matrix(.75 0 0 .75 98.292499 278.2423)" font-size="14.666667" font-family="TimesNewRomanPSMT"><tspan y="26.327906" x="24.985789 32.920457 39.41779 45.123125">Test</tspan></text>
<path transform="matrix(.001968504,0,0,.001968504,-175.178,-32.968996)" d="M133129.25 141153.4V141153.4C133129.25 140691.9 133503.38 140317.78 133964.89 140317.78H235889.63C236111.25 140317.78 236323.8 140405.82 236480.5 140562.53 236637.22 140719.24 236725.25 140931.78 236725.25 141153.4V152490.14C236725.25 152951.64 236351.13 153325.78 235889.63 153325.78H133964.89C133503.38 153325.78 133129.25 152951.64 133129.25 152490.14Z" fill="#009384" fill-rule="evenodd"/>
<text fill="#f3f3f3" xml:space="preserve" transform="matrix(.75 0 0 .75 87.36925 243.72888)" font-size="14.666667" font-family="TimesNewRomanPSMT"><tspan y="21.50848" x="80.16695 89.934947 97.26828 108.66428 120.06029 127.39362 134.72696 138.39363 143.27764 150.61096 154.67363 161.17096 166.05496 170.93897 177.4363 183.93363">Common Interface</tspan></text>
<path transform="matrix(.001968504,0,0,.001968504,-175.178,-32.968996)" d="M170490.44 158858.55V158858.55C170490.44 158261.66 170974.33 157777.77 171571.22 157777.77H198305.67C198592.32 157777.77 198867.2 157891.64 199069.89 158094.33 199272.58 158297 199386.44 158571.9 199386.44 158858.55V173521C199386.44 174117.89 198902.57 174601.77 198305.67 174601.77H171571.22C170974.33 174601.77 170490.44 174117.89 170490.44 173521Z" fill="#002f4a" fill-rule="evenodd"/>
<text fill="#f3f3f3" xml:space="preserve" transform="matrix(.75 0 0 .75 161.05626 278.2403)" font-size="14.666667" font-family="TimesNewRomanPSMT"><tspan y="26.327906" x="24.985789 32.920457 39.41779 45.123125">Test</tspan></text>
<path transform="matrix(.001968504,0,0,.001968504,-175.178,-32.968996)" d="M202374.44 158858.55V158858.55C202374.44 158261.66 202858.32 157777.77 203455.2 157777.77H230189.66C230476.3 157777.77 230751.19 157891.64 230953.88 158094.33 231156.57 158297 231270.44 158571.9 231270.44 158858.55V173521C231270.44 174117.89 230786.55 174601.77 230189.66 174601.77H203455.2C202858.32 174601.77 202374.44 174117.89 202374.44 173521Z" fill="#002f4a" fill-rule="evenodd"/>
<text fill="#f3f3f3" xml:space="preserve" transform="matrix(.75 0 0 .75 223.81999 278.2403)" font-size="14.666667" font-family="TimesNewRomanPSMT"><tspan y="26.327906" x="24.985789 32.920457 39.41779 45.123125">Test</tspan></text>
<path transform="matrix(.001968504,0,0,.001968504,-175.178,-32.968996)" d="M207548.7 91472.13H231248.7V105848.13H207548.7Z" fill-opacity="0" fill-rule="evenodd"/>
<text fill="#434343" xml:space="preserve" transform="matrix(.75 0 0 .75 233.38243 147.09426)" font-size="14.666667" font-family="TimesNewRomanPSMT"><tspan y="23.08" x="9 17.154667 25.309334">SSH</tspan></text>
<path transform="matrix(.001968504,0,0,.001968504,-175.178,-32.968996)" d="M101884.21 57493.126V57493.126C101884.21 57319.42 102025.02 57178.607 102198.73 57178.607H112357.69C112441.1 57178.607 112521.1 57211.744 112580.089 57270.728 112639.07 57329.71 112672.21 57409.71 112672.21 57493.126V61760.087C112672.21 61933.794 112531.39 62074.607 112357.69 62074.607H102198.73C102025.02 62074.607 101884.21 61933.794 101884.21 61760.087Z" fill="#002f4a" fill-rule="evenodd"/>
<path transform="matrix(.001968504,0,0,.001968504,-175.178,-32.968996)" d="M128986.81 57493.126V57493.126C128986.81 57319.42 129127.63 57178.607 129301.339 57178.607H139460.3C139543.72 57178.607 139623.72 57211.744 139682.69 57270.728 139741.67 57329.71 139774.82 57409.71 139774.82 57493.126V61760.087C139774.82 61933.794 139634 62074.607 139460.3 62074.607H129301.339C129127.63 62074.607 128986.81 61933.794 128986.81 61760.087Z" fill="#002f4a" fill-rule="evenodd"/>
<path transform="matrix(.001968504,0,0,.001968504,-175.178,-32.968996)" d="M155642.47 57493.126V57493.126C155642.47 57319.42 155783.28 57178.607 155956.99 57178.607H166115.96C166199.36 57178.607 166279.36 57211.744 166338.35 57270.728 166397.33 57329.71 166430.47 57409.71 166430.47 57493.126V61760.087C166430.47 61933.794 166289.66 62074.607 166115.96 62074.607H155956.99C155783.28 62074.607 155642.47 61933.794 155642.47 61760.087Z" fill="#002f4a" fill-rule="evenodd"/>
<path transform="matrix(.001968504,0,0,.001968504,-175.178,-32.968996)" d="M200317.44 57493.126V57493.126C200317.44 57319.42 200458.25 57178.607 200631.96 57178.607H210790.9C210874.33 57178.607 210954.33 57211.744 211013.32 57270.728 211072.3 57329.71 211105.44 57409.71 211105.44 57493.126V61760.087C211105.44 61933.794 210964.61 62074.607 210790.9 62074.607H200631.96C200458.25 62074.607 200317.44 61933.794 200317.44 61760.087Z" fill="#002f4a" fill-rule="evenodd"/>
<path transform="matrix(.001968504,0,0,.001968504,-175.178,-32.968996)" d="M226861.35 57480.92V57480.92C226861.35 57307.216 227002.16 57166.404 227175.86 57166.404H237334.83C237418.25 57166.404 237498.25 57199.54 237557.24 57258.525 237616.2 57317.505 237649.35 57397.505 237649.35 57480.92V61747.884C237649.35 61921.587 237508.53 62062.404 237334.83 62062.404H227175.86C227002.16 62062.404 226861.35 61921.587 226861.35 61747.884Z" fill="#002f4a" fill-rule="evenodd"/>
<path transform="matrix(.001968504,0,0,.001968504,-175.178,-32.968996)" d="M253796.35 57493.126V57493.126C253796.35 57319.42 253937.16 57178.607 254110.86 57178.607H264269.8C264353.26 57178.607 264433.26 57211.744 264492.23 57270.728 264551.23 57329.71 264584.35 57409.71 264584.35 57493.126V61760.087C264584.35 61933.794 264443.54 62074.607 264269.8 62074.607H254110.86C253937.16 62074.607 253796.35 61933.794 253796.35 61760.087Z" fill="#002f4a" fill-rule="evenodd"/>
<path transform="matrix(.001968504,0,0,.001968504,-175.178,-32.968996)" d="M107278.21 57178.607 107314.21 29758.606" fill-opacity="0" fill-rule="evenodd"/>
<path transform="matrix(.001968504,0,0,.001968504,-175.178,-32.968996)" stroke-width="762" stroke-linecap="butt" stroke-dasharray="3048,2286" stroke-linejoin="round" fill="none" stroke="#666666" d="M107278.21 57178.607 107314.21 29758.606"/>
<path transform="matrix(.001968504,0,0,.001968504,-175.178,-32.968996)" d="M88990.5 16748H125626.5V29756H88990.5Z" fill-opacity="0" fill-rule="evenodd"/>
<text fill="#434343" xml:space="preserve" transform="matrix(.75 0 0 .75 .00015258789 -.00049209597)" font-size="14.666667" font-family="TimesNewRomanPSMT"><tspan y="13.550868" x="25.693608 38.732278 45.22961 49.29228 54.176279 58.238946 64.73628 70.44162">Metrics </tspan></text>
<text fill="#434343" xml:space="preserve" transform="matrix(.75 0 0 .75 .00015258789 -.00049209597)" font-size="14.666667" font-family="TimesNewRomanPSMT"><tspan y="31.150866" x="22.444615 28.941948 36.27528 40.337949 44.400617 50.89795 57.395284 61.45795 68.79128">collector</tspan></text>
</g>
</g>
</g>
</svg>
